<svg xmlns="http://www.w3.org/2000/svg" version="1.1" viewBox="-5.0 -10.0 110.0 135.0">
 <path d="m77.871 65.926c-2.6328 3.8906-5.4062 7.7383-8.3281 11.535-1.6016 2.082-3.3633 3.5977-5.6875 4.7617l-9.1641 4.5938c-3.1055 1.5586-6.3555-0.32812-6.5586-3.7969l-0.59375-10.281c-0.14844-2.5352 0.27734-4.8125 1.2422-7.1914 3.8359-9.4492 8.2734-18.527 13.297-27.238 4.5898-7.9688 9.6562-15.609 15.176-22.934l-0.42578-7.9336c-0.125-2.0781-1.8125-3.6523-3.8984-3.7969-21.777-1.5156-43.551-1.5312-65.328-0.003906-2.0859 0.14453-3.7812 1.7227-3.8984 3.8047-1.6172 28.441-1.5977 56.676 0.003906 85.117 0.11719 2.0859 1.8125 3.6641 3.9023 3.8086 21.836 1.5078 43.465 1.5117 65.301 0 2.0898-0.14453 3.7852-1.7227 3.9023-3.8086 0.50781-8.9688 0.85547-17.742 1.0586-26.637zm-37.195 5.3594c0.84766 0 1.5312 0.6875 1.5312 1.5312 0 0.84766-0.6875 1.5312-1.5312 1.5312h-27.242c-0.84766 0-1.5312-0.6875-1.5312-1.5312 0-0.84766 0.6875-1.5312 1.5312-1.5312zm19.332-45.637c0.84766 0 1.5312 0.6875 1.5312 1.5312 0 0.84766-0.6875 1.5312-1.5312 1.5312h-46.574c-0.84766 0-1.5312-0.6875-1.5312-1.5312 0-0.84766 0.6875-1.5312 1.5312-1.5312zm-17.191 34.227c0.84766 0 1.5312 0.6875 1.5312 1.5312 0 0.84766-0.6875 1.5312-1.5312 1.5312h-5.7266c-0.84766 0-1.5312-0.6875-1.5312-1.5312 0-0.84766 0.6875-1.5312 1.5312-1.5312zm-19.602-22.82c0.84766 0 1.5312 0.6875 1.5312 1.5312 0 0.84766-0.6875 1.5312-1.5312 1.5312h-9.7812c-0.84766 0-1.5312-0.6875-1.5312-1.5312 0-0.84766 0.6875-1.5312 1.5312-1.5312zm20.543-22.82c0.84766 0 1.5312 0.6875 1.5312 1.5312 0 0.84766-0.68359 1.5312-1.5312 1.5312l-30.324 0.003906c-0.84766 0-1.5312-0.6875-1.5312-1.5312 0-0.84766 0.6875-1.5312 1.5312-1.5312h30.324zm-3.082 68.457c0.84766 0 1.5312 0.6875 1.5312 1.5312 0 0.84766-0.6875 1.5312-1.5312 1.5312l-27.242 0.003906c-0.84766 0-1.5312-0.6875-1.5312-1.5312 0-0.84766 0.6875-1.5312 1.5312-1.5312h27.242zm37.578-63.543c6.8906 0.89844 12.438 4.1836 16.656 9.6914 0.67188-1.5195 1.3242-3.043 1.957-4.5703 0.85937-2.0625 0.94531-4.4453-0.39063-6.1836-2.4727-3.2109-5.7188-5.0586-9.7305-5.5898-2.1602-0.28516-4.1719 0.96094-5.5312 2.7227-1.0039 1.3008-1.9922 2.6094-2.9648 3.9297zm15.203 12.91c-0.42969 0.92969-0.86328 1.8594-1.3047 2.7852-4.1055-6.5039-10.035-10.035-17.746-10.309 0.58594-0.84375 1.1758-1.6836 1.7695-2.5195 7.4297 0.49609 13.125 3.8906 17.281 10.047zm-2.9141 6.0938c-6.3516 12.785-13.902 24.934-22.664 36.453-0.66016-0.94531-1.3633-1.8164-2.1055-2.6211 7.9961-12.383 15.332-24.785 22.266-37.656 0.91016 1.1328 1.7461 2.4102 2.5039 3.8242zm-4.7148-6.1602c-6.8633 12.793-14.387 25.555-22.324 37.875-1.5586-1.2539-3.2734-2.2578-5.1328-2.9922 6.7383-13.18 13.836-25.727 21.637-38.281 2.1758 0.73828 4.1055 1.8672 5.8203 3.3984zm-8.9492-4.1602c-7.6055 12.293-14.879 25.195-21.473 38.121-1.0508-0.24219-2.1445-0.41406-3.2773-0.51172 5.5156-13.355 12.234-25.934 20.188-37.848 1.6094-0.066406 3.1289 0.011719 4.5586 0.23438zm-29.578 20.633c0.84766 0 1.5312 0.6875 1.5312 1.5312 0 0.84766-0.68359 1.5312-1.5312 1.5312l-33.867 0.003906c-0.84766 0-1.5312-0.6875-1.5312-1.5312 0-0.84766 0.6875-1.5312 1.5312-1.5312h33.875zm3.3438 25.07c-0.11328-1.9531-0.15625-3.1719 0.37891-5.1055 6.457 0.3125 11.32 3.2227 14.824 8.6328-1.4219 1.4336-2.5 2.0039-4.25 2.8828-2.957-3.3047-6.6133-5.4648-10.949-6.4023zm8.1055 7.832-5.4219 2.7188c-1.1211 0.5625-2.0664 0.050781-2.1406-1.2344l-0.35547-6.1289c3.0781 0.81641 5.6953 2.3633 7.918 4.6484zm7.7578-67.133c0.84766 0 1.5312 0.6875 1.5312 1.5312 0 0.84766-0.6875 1.5312-1.5312 1.5312h-14.988c-0.84766 0-1.5312-0.6875-1.5312-1.5312 0-0.84766 0.6875-1.5312 1.5312-1.5312zm-13.305 22.82c0.84766 0 1.5312 0.6875 1.5312 1.5312 0 0.84766-0.6875 1.5312-1.5312 1.5312h-21.281c-0.84766 0-1.5312-0.6875-1.5312-1.5312 0-0.84766 0.68359-1.5312 1.5312-1.5312zm-23.809 22.82c0.84766 0 1.5312 0.6875 1.5312 1.5312 0 0.84766-0.6875 1.5312-1.5312 1.5312h-15.969c-0.84766 0-1.5312-0.6875-1.5312-1.5312 0-0.84766 0.6875-1.5312 1.5312-1.5312z" fill-rule="evenodd"/>
<text x="0.0" y="117.5" font-size="5.0" font-weight="bold" font-family="Arbeit Regular, Helvetica, Arial-Unicode, Arial, Sans-serif" fill="#000000">Created by etika ariatna</text><text x="0.0" y="122.5" font-size="5.0" font-weight="bold" font-family="Arbeit Regular, Helvetica, Arial-Unicode, Arial, Sans-serif" fill="#000000">from Noun Project</text></svg>