<svg xmlns="http://www.w3.org/2000/svg" version="1.1" viewBox="-5.0 -10.0 110.0 135.0">
 <path d="m29.051 58.316h6.4375c3.0352-0.0625 3.0156-4.543 0-4.6016h-6.4375c-0.69141 0-1.2578-0.5625-1.2578-1.2578v-24.059c0-0.69141 0.56641-1.2578 1.2578-1.2578h10.121c0.97656 0 1.8516-0.62109 2.1719-1.543l1.6875-4.8438c0.035156-0.10156 0.0625-0.19922 0.082031-0.30469 0.11719-0.58984 0.54688-1.0352 0.99609-1.0352h11.652c0.57422-0.023437 0.99219 0.67969 1.1055 1.332 0 0 1.6719 4.8438 1.6719 4.8438 0.32031 0.92578 1.1914 1.5508 2.1758 1.5508h10.133c0.69141 0 1.2578 0.56641 1.2578 1.2578v24.059c0 0.69141-0.56641 1.2578-1.2578 1.2578h-6.4375c-1.2695 0-2.3008 1.0312-2.3008 2.3008s1.0312 2.3008 2.3008 2.3008h6.4375c3.2305 0 5.8594-2.625 5.8594-5.8555v-24.059c0-3.2305-2.6289-5.8594-5.8594-5.8594h-8.4961l-1.0977-3.1836c-0.65234-2.6836-2.8906-4.5469-5.4961-4.5469h-11.652c-2.5859 0-4.8594 1.9062-5.4688 4.5586l-1.1016 3.168h-8.4844c-3.2305 0-5.8594 2.6289-5.8594 5.8594v24.059c0 3.2305 2.6289 5.8555 5.8594 5.8555z"/>
 <path d="m49.949 31.27c-6.7461 0-12.234 5.4883-12.234 12.234 0.67188 16.23 23.801 16.227 24.469 0 0-6.7461-5.4883-12.234-12.234-12.234zm0 19.871c-10.09-0.32031-10.086-14.949 0-15.27 10.09 0.32031 10.086 14.949 0 15.27z"/>
 <path d="m49.949 74.969c-26.355 0.09375-50.219-12.402-33.516-24.895 1.0391-0.73047 1.2891-2.168 0.55859-3.2031-0.73047-1.0391-2.168-1.2891-3.2031-0.55859-4.9297 3.4727-7.5352 7.6445-7.5352 12.074 0 10.852 16.023 19.555 37.48 20.977l-2.1055 1.7148c-2.3164 1.9453 0.53516 5.4375 2.9062 3.5664l6.8711-5.5938c1.668-1.2734 0.65234-4.1523-1.4531-4.082z"/>
 <path d="m86.109 46.312c-2.5078-1.6914-5.0898 1.9766-2.6484 3.7617 2.5469 1.793 5.582 4.6914 5.582 8.3125 0 7.5156-13.141 14.461-30.562 16.16-1.2656 0.12109-2.1875 1.25-2.0664 2.5117 0.11719 1.2695 1.2695 2.1914 2.5117 2.0664 25.797-2.1758 46.629-17.734 27.184-32.812z"/>
<text x="0.0" y="117.5" font-size="5.0" font-weight="bold" font-family="Arbeit Regular, Helvetica, Arial-Unicode, Arial, Sans-serif" fill="#000000">Created by Sentya Irma</text><text x="0.0" y="122.5" font-size="5.0" font-weight="bold" font-family="Arbeit Regular, Helvetica, Arial-Unicode, Arial, Sans-serif" fill="#000000">from Noun Project</text></svg>