<svg xmlns="http://www.w3.org/2000/svg" version="1.1" viewBox="-5.0 -10.0 110.0 135.0">
 <path d="m2.5 22.742c0-6.9219 5.6328-12.555 12.555-12.555h7.5781v-3.6172c0-2.25 1.8281-4.0703 4.0703-4.0703s4.0781 1.8242 4.0781 4.0703v3.6172h15.152v-3.6172c0-2.25 1.8164-4.0703 4.0703-4.0703s4.0703 1.8242 4.0703 4.0703v3.6172h15.152v-3.6172c0-2.25 1.8164-4.0703 4.0703-4.0703s4.0703 1.8242 4.0703 4.0703v3.6172h7.5859c6.9219 0 12.555 5.6328 12.555 12.555v62.203c0 6.9219-5.6328 12.555-12.555 12.555h-69.898c-6.9219 0-12.555-5.6328-12.555-12.555zm51.57-0.79297c0 2.25-1.8242 4.0703-4.0703 4.0703-2.2422 0-4.0703-1.8242-4.0703-4.0703v-3.6172h-15.152v3.6172c0 2.25-1.8242 4.0703-4.0781 4.0703-2.2539 0-4.0703-1.8242-4.0703-4.0703v-3.6172h-7.5781c-2.4258 0-4.418 1.9844-4.418 4.4102v10.312h78.715v-10.312c0-2.4258-1.9805-4.4102-4.4062-4.4102h-7.5859v3.6172c0 2.25-1.8164 4.0703-4.0703 4.0703s-4.0703-1.8242-4.0703-4.0703v-3.6172h-15.152v3.6172zm5.1523 60.656c2.3477 0 4.1445-1.8125 4.1445-4.0703 0-2.25-1.8281-4.0703-4.0703-4.0703-2.3477 0-4.1445 1.8125-4.1445 4.0703 0 2.2578 1.8164 4.0703 4.0703 4.0703zm18.516-13.262c2.3477 0 4.1445-1.8125 4.1445-4.0703 0-2.25-1.8164-4.0703-4.0703-4.0703-2.3477 0-4.1445 1.8125-4.1445 4.0703 0 2.2617 1.8164 4.0703 4.0703 4.0703zm-18.516 0c2.3477 0 4.1445-1.8125 4.1445-4.0703 0-2.25-1.8281-4.0703-4.0703-4.0703-2.3477 0-4.1445 1.8125-4.1445 4.0703 0 2.2617 1.8164 4.0703 4.0703 4.0703zm18.516-13.262c2.3477 0 4.1445-1.8125 4.1445-4.0703 0-2.2461-1.8164-4.0703-4.0703-4.0703-2.3477 0-4.1445 1.8125-4.1445 4.0703 0 2.2617 1.8164 4.0703 4.0703 4.0703zm-18.516 0c2.3477 0 4.1445-1.8125 4.1445-4.0703 0-2.2461-1.8281-4.0703-4.0703-4.0703-2.3477 0-4.1445 1.8125-4.1445 4.0703 0 2.2617 1.8164 4.0703 4.0703 4.0703zm-18.516 0c2.3398 0 4.1445-1.8125 4.1445-4.0703 0-2.2461-1.8281-4.0703-4.0703-4.0703-2.3477 0-4.1445 1.8125-4.1445 4.0703 0 2.2617 1.8164 4.0703 4.0703 4.0703zm0 26.52c2.3398 0 4.1445-1.8125 4.1445-4.0703 0-2.25-1.8281-4.0703-4.0703-4.0703-2.3477 0-4.1445 1.8125-4.1445 4.0703s1.8164 4.0703 4.0703 4.0703zm0-13.262c2.3398 0 4.1445-1.8125 4.1445-4.0703 0-2.25-1.8281-4.0703-4.0703-4.0703-2.3477 0-4.1445 1.8125-4.1445 4.0703 0 2.2617 1.8164 4.0703 4.0703 4.0703zm-18.516 13.262c2.3398 0 4.1445-1.8125 4.1445-4.0703 0-2.25-1.8281-4.0703-4.0781-4.0703-2.3398 0-4.1445 1.8125-4.1445 4.0703s1.8281 4.0703 4.0781 4.0703zm0-13.262c2.3398 0 4.1445-1.8125 4.1445-4.0703 0-2.25-1.8281-4.0703-4.0781-4.0703-2.3398 0-4.1445 1.8125-4.1445 4.0703 0 2.2617 1.8281 4.0703 4.0781 4.0703zm67.168-28.148-78.723 0.007813v43.746c0 2.4258 1.9922 4.4102 4.418 4.4102h69.895c2.4258 0 4.4062-1.9844 4.4062-4.4102v-43.746z" fill-rule="evenodd"/>
<text x="0.0" y="117.5" font-size="5.0" font-weight="bold" font-family="Arbeit Regular, Helvetica, Arial-Unicode, Arial, Sans-serif" fill="#000000">Created by etika ariatna</text><text x="0.0" y="122.5" font-size="5.0" font-weight="bold" font-family="Arbeit Regular, Helvetica, Arial-Unicode, Arial, Sans-serif" fill="#000000">from Noun Project</text></svg>