<svg xmlns="http://www.w3.org/2000/svg" version="1.1" viewBox="-5.0 -10.0 110.0 135.0">
 <path d="m56.375 47.906v-2.1875c0-2.9375-1.9688-5.4062-4.6875-6.1562v-3.6875c2.1875-0.40625 4.1562-1.5938 5.5312-3.4062 1.75-2.25 2.3438-5.1875 1.625-8-0.8125-3.0938-3.3438-5.625-6.4375-6.4375-2.8438-0.71875-5.75-0.15625-8 1.5938s-3.5625 4.4062-3.5625 7.25h3.375c0-1.8125 0.8125-3.4688 2.25-4.5625 1.4375-1.125 3.25-1.4688 5.0938-1 1.9375 0.5 3.5 2.0625 4 4 0.5 1.8438 0.125 3.6562-1 5.0938-1.0938 1.4375-2.75 2.25-4.5625 2.25h-1.6875v6.9062c-2.7188 0.75-4.6875 3.2188-4.6875 6.1562v2.1875l-34.062 22.906v9.7812l9.0938-6.125h62.688l9.0938 6.125v-9.7812zm-32.719 23.188 26.344-17.719 26.344 17.719z"/>
<text x="0.0" y="117.5" font-size="5.0" font-weight="bold" font-family="Arbeit Regular, Helvetica, Arial-Unicode, Arial, Sans-serif" fill="#000000">Created by IGraphics</text><text x="0.0" y="122.5" font-size="5.0" font-weight="bold" font-family="Arbeit Regular, Helvetica, Arial-Unicode, Arial, Sans-serif" fill="#000000">from Noun Project</text></svg>