<svg xmlns="http://www.w3.org/2000/svg" xmlns:xlink="http://www.w3.org/1999/xlink" version="1.1" x="0px" y="0px" viewBox="0 0 100 125" style="enable-background:new 0 0 100 100;" xml:space="preserve"><path d="M87.5,42.8C84.7,59.2,73.4,59.7,74,78.6V95H40V84.9c0-1.9-1.6-3.5-3.5-3.5l-10.7,0.3c-2.2,0.1-4.2-1.5-4.5-3.7l-1.8-13.8  c0,0-3.8-1.3-6.7-2.9c-1.5-0.8-1.9-2.8-0.9-4.2l6.3-8.6c1.2-1.6,1.7-3.6,1.4-5.6C18,31.7,20.9,5,51.1,5C79.9,5,89.9,29.1,87.5,42.8z  "/><text x="0" y="115" fill="#000000" font-size="5px" font-weight="bold" font-family="'Helvetica Neue', Helvetica, Arial-Unicode, Arial, Sans-serif">Created by Suryaman</text><text x="0" y="120" fill="#000000" font-size="5px" font-weight="bold" font-family="'Helvetica Neue', Helvetica, Arial-Unicode, Arial, Sans-serif">from the Noun Project</text></svg>