<svg xmlns="http://www.w3.org/2000/svg" version="1.1" viewBox="-5.0 -10.0 110.0 135.0">
 <path d="m24.074 11.109c-6.125 0-11.109 4.9883-11.109 11.109v55.555c0 6.125 4.9883 11.109 11.109 11.109h61.109c1.0234 0 1.8516-0.82812 1.8516-1.8516v-55.551c0-1.0234-0.82812-1.8516-1.8516-1.8516h-5.5547v-16.664c0-1.0234-0.82812-1.8555-1.8516-1.8555zm0 3.7031 51.852 0.003906v14.812h-51.852c-4.1367 0-7.4062-3.2695-7.4062-7.4062 0-4.1367 3.2734-7.4062 7.4062-7.4062zm3.7031 5.5547c-1.0234 0-1.8516 0.82812-1.8516 1.8516s0.82812 1.8516 1.8516 1.8516l39.816 0.003907c1.0234 0 1.8516-0.82812 1.8516-1.8516 0-1.0234-0.82812-1.8516-1.8516-1.8516zm-11.109 10.113c1.9688 1.7656 4.5625 2.8555 7.4062 2.8555h59.258v16.664h-22.223c-1.0195 0-1.8516 0.82812-1.8516 1.8516v14.816c0 1.0234 0.82813 1.8516 1.8516 1.8516h22.223v16.664h-59.258c-4.1367 0-7.4062-3.2734-7.4062-7.4062zm46.297 23.223h20.367v11.113h-20.367zm6.4805 3.7031c-1.0234 0-1.8516 0.82812-1.8516 1.8516 0 1.0234 0.82812 1.8516 1.8516 1.8516 1.0234 0 1.8516-0.82812 1.8516-1.8516 0-1.0234-0.82812-1.8516-1.8516-1.8516z"/>
<text x="0.0" y="117.5" font-size="5.0" font-weight="bold" font-family="Arbeit Regular, Helvetica, Arial-Unicode, Arial, Sans-serif" fill="#000000">Created by Graphtend</text><text x="0.0" y="122.5" font-size="5.0" font-weight="bold" font-family="Arbeit Regular, Helvetica, Arial-Unicode, Arial, Sans-serif" fill="#000000">from Noun Project</text></svg>