<svg xmlns="http://www.w3.org/2000/svg" xmlns:xlink="http://www.w3.org/1999/xlink" version="1.1" x="0px" y="0px" viewBox="0 0 100 125" style="enable-background:new 0 0 100 100;" xml:space="preserve"><path d="M94.6,23.3L83,11.8c-2.6-2.6-5.9-4.6-9.6-5.5l-3.9-1.1c-0.2-0.1-0.4-0.1-0.6,0c-0.1,0-0.1,0-0.2,0c-0.8,0-1.5,0.7-1.5,1.5  c0,3.3-5,6-10.9,6s-10.9-2.8-10.9-6c0-0.8-0.7-1.5-1.5-1.5c-0.1,0-0.1,0-0.2,0c-0.2,0-0.4,0-0.6,0l-3.9,1.1c-3.6,1-6.9,2.9-9.6,5.5  L18.2,23.3c-0.6,0.6-0.6,1.5,0,2.1l10,10c0.6,0.6,1.5,0.6,2.1,0l6.8-6.8v19.5H21.2c-0.8,0-1.5,0.7-1.5,1.5v6L5.1,90.3  c-0.2,0.4-0.1,1,0.1,1.4c0.3,0.4,0.7,0.7,1.2,0.7l26.8,1.9c0,0,0.1,0,0.1,0c0.5,0,1-0.3,1.3-0.7l4.4-6.8l4.4,6.8  c0.3,0.5,0.8,0.7,1.4,0.7l26.8-1.9c0.5,0,0.9-0.3,1.2-0.7c0.3-0.4,0.3-0.9,0.1-1.4L62.7,65.7h11.5c0.8,0,1.5-0.7,1.5-1.5V28.6  l6.8,6.8c0.6,0.6,1.5,0.6,2.1,0l10-10c0.3-0.3,0.4-0.7,0.4-1.1S94.8,23.6,94.6,23.3z M72.6,35.9c-1.4,0.7-6.9,1.7-16.3,1.7  c-9.3,0-14.9-1-16.3-1.7v-2.8c3.7,1.2,10.4,1.6,16.3,1.6c5.9,0,12.5-0.3,16.3-1.6V35.9z M55.4,51.1v3.3H27.4c0,0,0,0,0,0h-4.6v-3.3  H55.4z M22.2,57.4h2.9l-13,32.4l-3.4-0.2L22.2,57.4z M45.5,91.2l-5.2-8c-0.6-0.8-2-0.8-2.5,0l-5.2,8L15.3,90l13.1-32.6h27.5  l13.5,32.1L45.5,91.2z M61.4,62.7l-3-7.1v-6c0-0.8-0.7-1.5-1.5-1.5H40.1V39c3.7,1.2,10.4,1.6,16.3,1.6c5.9,0,12.5-0.3,16.3-1.6v23.7  H61.4z M83.5,32.2l-7.9-7.9v-3.9c0-0.8-0.7-1.5-1.5-1.5s-1.5,0.7-1.5,1.5V25v5c-1.4,0.7-6.9,1.7-16.3,1.7c-9.3,0-14.9-1-16.3-1.7v-5  v-4.5c0-0.8-0.7-1.5-1.5-1.5s-1.5,0.7-1.5,1.5v3.9l-7.9,7.9l-7.9-7.9l10.5-10.5c2.3-2.3,5.1-3.9,8.2-4.8l2.7-0.7  c1.2,4.2,6.8,7.3,13.6,7.3c6.8,0,12.4-3.1,13.6-7.3l2.7,0.7c3.1,0.8,5.9,2.5,8.2,4.8l10.5,10.5L83.5,32.2z"/><text x="0" y="115" fill="#000000" font-size="5px" font-weight="bold" font-family="'Helvetica Neue', Helvetica, Arial-Unicode, Arial, Sans-serif">Created by Adriano Vabeni</text><text x="0" y="120" fill="#000000" font-size="5px" font-weight="bold" font-family="'Helvetica Neue', Helvetica, Arial-Unicode, Arial, Sans-serif">from the Noun Project</text></svg>