<svg xmlns="http://www.w3.org/2000/svg" data-name="Layer 1" viewBox="0 0 100 125" x="0px" y="0px"><title>economic and financial icon set</title><path d="M83.69,19.16a9.8,9.8,0,0,0-7.63,16L64.78,53.35a9.73,9.73,0,0,0-9.34,1.23L47.89,48.8a9.8,9.8,0,1,0-17.84,1.73L20,61.95a9.83,9.83,0,1,0,4.84,4.22L34.86,54.79A9.79,9.79,0,0,0,44,53.9l7.79,6a9.8,9.8,0,1,0,17.92-2.29l11.8-19.05a9.8,9.8,0,1,0,2.18-19.36Z"/><text x="0" y="115" fill="#000000" font-size="5px" font-weight="bold" font-family="'Helvetica Neue', Helvetica, Arial-Unicode, Arial, Sans-serif">Created by fajar hasyim</text><text x="0" y="120" fill="#000000" font-size="5px" font-weight="bold" font-family="'Helvetica Neue', Helvetica, Arial-Unicode, Arial, Sans-serif">from the Noun Project</text></svg>