<svg xmlns="http://www.w3.org/2000/svg" xmlns:xlink="http://www.w3.org/1999/xlink" version="1.1" x="0px" y="0px" viewBox="0 0 100 125" style="enable-background:new 0 0 100 100;" xml:space="preserve"><path d="M84,15H16c-3.309,0-6,2.691-6,6v58c0,3.309,2.691,6,6,6h68c3.309,0,6-2.691,6-6V21C90,17.691,87.309,15,84,15z M16,19h68  c1.103,0,2,0.897,2,2v6H14v-6C14,19.897,14.897,19,16,19z M84,81H16c-1.103,0-2-0.897-2-2V31h72v48C86,80.103,85.103,81,84,81z   M78,23c0-1.105,0.895-2,2-2s2,0.895,2,2c0,1.105-0.895,2-2,2S78,24.105,78,23z M72,23c0-1.105,0.895-2,2-2s2,0.895,2,2  c0,1.105-0.895,2-2,2S72,24.105,72,23z M66,23c0-1.105,0.895-2,2-2s2,0.895,2,2c0,1.105-0.895,2-2,2S66,24.105,66,23z   M70.414,54.586c0.781,0.781,0.781,2.047,0,2.828l-8,8C62.024,65.805,61.512,66,61,66s-1.024-0.195-1.414-0.586  c-0.781-0.781-0.781-2.047,0-2.828L66.171,56l-6.585-6.586c-0.781-0.781-0.781-2.047,0-2.828c0.78-0.781,2.048-0.781,2.828,0  L70.414,54.586z M40.414,49.414L33.829,56l6.585,6.586c0.781,0.781,0.781,2.047,0,2.828C40.024,65.805,39.512,66,39,66  s-1.024-0.195-1.414-0.586l-8-8c-0.781-0.781-0.781-2.047,0-2.828l8-8c0.78-0.781,2.048-0.781,2.828,0  C41.195,47.367,41.195,48.633,40.414,49.414z M55.857,46.743l-8,20C47.544,67.525,46.793,68,46,68c-0.248,0-0.499-0.046-0.742-0.144  c-1.026-0.41-1.524-1.574-1.114-2.6l8-20c0.411-1.026,1.576-1.524,2.6-1.114C55.769,44.553,56.267,45.717,55.857,46.743z"/><text x="0" y="115" fill="#000000" font-size="5px" font-weight="bold" font-family="'Helvetica Neue', Helvetica, Arial-Unicode, Arial, Sans-serif">Created by Setyo Ari Wibowo</text><text x="0" y="120" fill="#000000" font-size="5px" font-weight="bold" font-family="'Helvetica Neue', Helvetica, Arial-Unicode, Arial, Sans-serif">from the Noun Project</text></svg>